{"glyphs":{":":{"x_min":0,"x_max":306,"ha":306,"o":"m 283 119 q 283 66 246 29 q 208 -9 155 -9 q 102 -9 64 29 q 27 66 27 119 q 27 186 79 222 q 27 253 27 318 q 27 371 64 408 q 102 446 155 446 q 208 446 246 408 q 283 371 283 318 q 283 254 232 222 q 283 185 283 119 z"},"$":{"x_min":0,"x_max":538,"ha":538,"o":"m 513 543 q 513 540 490 483 q 468 426 468 399 q 468 388 455 388 q 444 388 408 406 q 372 424 357 424 q 345 424 334 417 q 322 408 322 396 q 322 380 335 371 q 349 363 363 356 q 484 290 484 212 q 484 88 382 36 q 379 34 311 9 q 316 -60 316 -68 q 316 -83 308 -83 q 300 -83 283 -81 q 266 -79 257 -79 q 249 -79 231 -81 q 214 -83 206 -83 q 198 -83 198 -19 q 185 -21 165 -21 q 104 -21 84 -17 q 71 -14 71 -1 q 71 42 67 75 q 66 85 56 122 q 47 155 47 163 q 47 175 68 175 q 79 175 101 173 q 122 171 133 171 q 192 171 192 206 q 192 223 151 250 q 96 288 76 309 q 36 353 36 408 q 36 477 85 531 q 131 581 201 601 q 203 618 203 659 q 203 673 210 673 q 219 673 238 671 q 257 670 267 670 q 277 670 296 671 q 315 673 325 673 q 332 673 332 608 q 368 604 431 585 q 513 562 513 543 z"},"?":{"x_min":0,"x_max":446,"ha":446,"o":"m 440 501 q 440 413 396 367 q 374 344 311 315 q 261 293 255 266 q 253 255 251 244 q 248 235 232 235 q 167 235 136 226 q 131 225 128 225 q 110 225 110 246 q 110 308 127 337 q 156 387 156 412 q 156 459 101 459 q 85 459 62 450 q 39 441 36 441 q 14 441 14 562 q 14 575 15 600 q 15 625 15 637 q 15 661 104 680 q 176 696 212 696 q 307 696 371 647 q 440 593 440 501 z m 316 104 q 316 56 281 22 q 247 -12 199 -12 q 151 -12 117 22 q 82 56 82 104 q 82 152 116 186 q 151 219 199 219 q 247 219 281 186 q 316 152 316 104 z"},"<":{"x_min":0,"x_max":445,"ha":445,"o":"m 412 414 q 412 407 402 396 q 345 330 235 291 q 231 290 227 285 q 229 282 234 280 q 342 241 402 164 q 412 152 412 146 q 412 141 396 111 q 377 74 377 73 q 367 54 352 15 q 350 8 346 8 q 342 8 271 62 q 230 93 189 125 q 136 164 58 185 q 41 189 41 204 q 41 217 43 244 q 45 271 45 285 q 45 297 43 321 q 41 345 41 357 q 41 370 58 376 q 124 399 199 448 q 263 493 328 538 q 340 546 345 546 q 349 546 373 491 q 375 488 395 451 q 412 419 412 414 z"},"'":{"x_min":0,"x_max":290,"ha":290,"o":"m 253 581 q 253 526 249 503 q 245 480 205 380 q 201 370 190 370 q 183 370 168 369 q 153 368 146 368 q 140 368 127 369 q 114 370 108 370 q 98 370 92 382 q 66 433 46 523 q 40 549 40 602 l 40 672 q 40 687 48 687 q 63 687 95 688 q 126 690 142 690 q 158 690 191 688 q 224 687 240 687 q 253 687 253 581 z"},"=":{"x_min":0,"x_max":527,"ha":527,"o":"m 492 479 q 492 469 489 406 q 485 341 484 336 q 482 328 477 328 q 476 329 473 329 q 447 334 248 334 q 215 334 149 332 q 83 329 50 329 q 40 329 40 347 q 40 348 46 414 q 46 448 48 485 q 51 493 60 493 q 94 493 163 490 q 231 488 266 488 q 302 488 375 490 q 447 491 483 491 q 492 491 492 479 z m 492 257 q 492 247 489 183 q 485 119 484 114 q 482 106 477 106 q 476 106 473 107 q 447 112 248 112 q 215 112 149 109 q 83 107 50 107 q 40 107 40 125 q 40 125 46 192 q 46 226 48 263 q 51 271 60 271 q 94 271 163 269 q 231 266 266 266 q 302 266 375 268 q 447 269 483 269 q 492 269 492 257 z"},"a":{"x_min":0,"x_max":623,"ha":623,"o":"m 595 440 q 595 437 593 428 q 572 317 572 249 q 572 196 580 96 q 585 21 585 21 q 585 1 564 0 q 564 0 476 0 q 460 0 427 -2 q 395 -4 379 -4 q 359 -4 358 16 q 357 35 351 35 q 354 35 309 12 q 264 -11 234 -11 q 138 -11 78 63 q 21 133 21 232 q 21 347 85 423 q 138 486 258 486 q 283 486 328 470 q 373 454 372 454 q 375 454 378 471 q 381 488 392 488 q 408 488 488 472 q 564 457 586 450 q 595 447 595 440 z m 351 243 q 351 288 307 288 q 287 288 273 275 q 260 263 260 243 q 260 224 273 211 q 287 199 307 199 q 326 199 339 212 q 351 224 351 243 z"},"L":{"x_min":0,"x_max":576,"ha":576,"o":"m 560 220 q 560 120 543 8 q 540 -10 528 -10 q 536 -10 458 -4 q 346 4 280 4 q 244 4 173 2 q 102 0 66 0 q 51 0 49 19 q 50 5 50 53 l 50 334 q 50 387 45 504 q 41 617 41 674 q 41 685 52 685 q 73 685 114 683 q 155 681 176 681 q 198 681 241 683 q 285 686 307 686 q 314 686 314 675 l 314 670 q 308 587 300 422 q 299 358 299 322 q 299 281 301 226 q 302 207 309 207 q 361 207 422 213 q 491 220 544 232 q 548 233 551 233 q 560 233 560 220 z"},"3":{"x_min":0,"x_max":502,"ha":502,"o":"m 495 167 q 495 75 415 25 q 346 -17 249 -17 q 199 -17 118 -5 q 12 9 12 30 q 12 33 15 42 q 39 110 60 188 q 64 204 76 204 q 84 204 120 192 q 155 180 173 180 q 231 180 231 212 q 231 245 170 245 q 160 245 143 244 q 126 243 121 243 q 93 243 87 244 q 67 248 67 264 q 67 341 75 366 q 80 381 96 381 q 107 381 130 377 q 152 373 164 373 q 188 373 188 397 q 188 424 137 424 q 125 424 100 419 q 75 414 63 414 q 56 414 51 430 q 49 437 44 490 q 40 542 40 554 q 40 571 56 578 q 118 606 238 606 q 323 606 390 568 q 471 523 471 445 q 471 356 388 309 q 436 295 465 256 q 495 216 495 167 z"},";":{"x_min":0,"x_max":306,"ha":306,"o":"m 283 320 q 283 267 246 230 q 208 194 155 194 q 102 194 64 230 q 27 267 27 320 q 27 373 64 409 q 102 446 155 446 q 208 446 246 409 q 283 373 283 320 z m 269 175 q 269 118 240 49 q 211 -20 171 -62 q 155 -79 117 -110 q 76 -145 60 -151 q 52 -154 46 -154 q 39 -154 31 -147 q 1 -127 -32 -100 q -35 -93 -35 -87 q -35 -75 -15 -54 q 14 -24 23 -9 q 43 23 43 60 q 43 72 42 96 q 41 120 41 132 q 41 148 59 153 q 89 156 147 167 q 153 168 197 184 q 236 198 243 198 q 269 198 269 175 z"},"J":{"x_min":0,"x_max":406,"ha":406,"o":"m 363 672 q 363 623 359 523 q 354 424 354 374 q 354 358 355 326 q 356 293 356 277 q 356 148 333 72 q 291 -67 198 -150 q 188 -159 180 -159 q 174 -159 167 -152 q 143 -124 92 -69 q 62 -44 5 8 q -1 14 -1 19 q -1 23 4 29 q 12 34 26 43 q 67 76 84 131 q 100 182 100 273 q 100 350 94 470 q 85 639 84 667 l 84 673 q 83 685 95 685 q 117 685 162 683 q 206 681 228 681 q 249 681 290 683 q 331 685 351 685 q 363 685 363 672 z"},"V":{"x_min":0,"x_max":686,"ha":686,"o":"m 662 673 q 662 637 660 563 q 657 489 657 452 q 657 442 614 340 q 580 256 564 222 q 535 158 496 83 q 483 60 461 14 q 455 0 446 0 q 425 0 382 1 q 339 2 317 2 q 303 2 274 1 q 245 0 231 0 q 222 0 215 14 q 179 85 111 230 q 29 414 29 435 q 29 474 31 551 q 34 628 34 667 q 34 685 45 685 q 66 685 107 683 q 148 681 169 681 q 190 681 232 683 q 274 686 294 686 q 302 686 302 675 q 302 634 297 551 q 291 467 291 426 q 291 403 309 363 q 324 333 339 302 q 353 326 369 370 q 386 417 389 441 q 390 466 391 517 q 394 666 394 670 q 394 686 401 686 q 422 686 464 683 q 506 681 527 681 q 547 681 588 683 q 629 685 650 685 q 662 685 662 673 z"},"\"":{"x_min":0,"x_max":476,"ha":476,"o":"m 444 674 l 444 613 q 444 529 399 422 q 395 410 352 410 q 304 410 300 420 q 262 511 262 527 q 262 539 263 674 q 263 687 270 687 q 284 687 341 690 q 355 690 437 687 q 444 687 444 674 z m 213 525 q 212 510 200 473 q 188 436 177 420 q 173 410 125 410 q 81 412 78 422 q 35 528 33 585 l 33 674 q 33 687 122 690 q 193 688 207 687 q 212 687 214 667 q 214 652 213 625 l 212 595 q 212 583 212 560 q 213 537 213 525 z"},"7":{"x_min":0,"x_max":514,"ha":514,"o":"m 499 446 q 499 435 483 421 q 419 364 385 263 q 345 144 345 37 q 345 -12 320 -12 q 299 -12 258 -10 q 217 -8 196 -8 q 176 -8 135 -10 q 94 -12 74 -12 q 68 -12 64 4 q 64 121 122 225 q 150 275 164 297 q 189 337 213 363 q 224 375 224 379 q 224 387 197 387 q 167 387 107 385 q 48 382 19 382 q 5 382 5 396 q 5 415 11 449 q 19 491 20 502 q 22 521 22 612 q 22 630 44 630 q 59 630 99 620 q 145 609 157 607 q 182 604 273 602 q 372 599 464 599 q 491 599 495 568 q 499 538 499 446 z"},"S":{"x_min":0,"x_max":477,"ha":477,"o":"m 439 512 q 439 510 398 481 q 356 453 356 422 q 356 400 394 336 q 431 271 431 220 q 431 157 402 109 q 371 58 286 8 q 214 -34 141 -55 q 135 -57 131 -57 q 125 -57 120 -46 q 116 -39 64 58 q 15 148 15 149 q 15 153 47 172 q 86 195 107 214 q 139 246 139 280 q 139 310 118 341 q 78 398 78 399 q 56 439 56 491 q 56 582 142 642 q 212 690 312 704 q 330 707 327 707 q 330 707 334 696 q 355 643 438 516 q 439 514 439 512 z"},"}":{"x_min":0,"x_max":440,"ha":440,"o":"m 403 192 q 403 183 380 181 q 349 177 345 176 q 330 170 320 147 q 312 128 312 109 q 312 83 334 19 q 356 -45 356 -72 q 356 -149 290 -177 q 246 -196 157 -196 q 84 -196 63 -190 q 51 -187 51 -177 q 51 -168 54 -150 q 57 -132 57 -123 q 57 -114 56 -97 q 54 -81 54 -72 q 54 -59 64 -59 q 78 -59 108 -63 q 137 -68 152 -68 q 177 -68 177 -42 q 177 -27 163 29 q 148 86 148 112 q 148 177 201 216 q 249 251 316 251 q 249 251 201 286 q 148 324 148 389 q 148 415 163 471 q 177 527 177 542 q 177 565 152 565 q 138 565 110 562 q 82 560 68 560 q 54 560 54 573 q 54 583 56 604 q 57 624 57 634 q 57 642 54 656 q 51 671 51 678 q 51 688 63 691 q 84 697 157 697 q 245 697 289 678 q 356 649 356 573 q 356 546 333 478 q 310 410 310 385 q 310 319 388 319 q 403 319 403 309 q 403 299 399 280 q 395 261 395 251 q 395 241 399 221 q 403 202 403 192 z"},"Z":{"x_min":0,"x_max":534,"ha":534,"o":"m 522 207 q 522 181 516 102 q 510 19 506 0 q 503 -11 493 -11 q 464 -11 407 -7 q 350 -3 321 -3 q 278 -3 192 -1 q 106 0 63 0 q 42 0 40 11 q 39 47 28 117 q 16 159 16 164 q 16 167 109 308 q 202 449 202 468 q 202 478 189 478 l 35 478 q 22 478 22 491 q 22 508 28 537 q 36 573 37 582 q 49 675 49 689 q 49 699 62 699 q 83 699 125 692 q 167 685 189 685 l 488 685 q 500 685 502 671 q 513 610 513 522 q 513 508 501 491 q 464 440 402 349 q 320 229 320 216 q 320 211 329 211 q 386 211 416 213 q 445 215 501 222 q 512 224 514 224 q 522 224 522 207 z"},"x":{"x_min":0,"x_max":542,"ha":542,"o":"m 527 17 q 527 0 505 0 l 343 0 q 328 0 319 14 q 313 24 295 47 q 274 74 270 74 q 260 74 221 14 q 212 0 197 0 l 40 0 q 18 0 18 17 l 18 136 q 18 150 62 192 q 107 233 107 243 q 107 250 62 292 q 18 334 18 348 l 18 467 q 18 484 40 484 l 197 484 q 212 484 221 470 q 260 410 270 410 q 274 410 295 437 q 313 460 319 470 q 328 484 343 484 l 505 484 q 527 484 527 467 l 527 348 q 527 334 482 292 q 437 249 437 241 q 440 231 486 189 q 527 151 527 136 z"},")":{"x_min":0,"x_max":445,"ha":445,"o":"m 403 264 q 403 161 374 69 q 340 -37 274 -98 q 243 -127 185 -161 q 126 -196 85 -210 q 71 -215 66 -215 q 59 -215 40 -177 q 21 -141 21 -130 q 21 -119 40 -107 q 90 -74 122 -10 q 142 29 158 125 q 172 210 172 265 q 172 319 156 391 q 140 466 116 510 q 71 594 36 617 q 18 629 18 640 q 18 651 33 683 q 48 716 57 716 q 62 716 75 711 q 226 658 313 542 q 403 422 403 264 z"},"&":{"x_min":0,"x_max":698,"ha":698,"o":"m 669 27 q 669 0 649 0 q 631 0 595 -1 q 559 -3 541 -3 q 504 -3 461 40 q 417 83 413 83 q 412 83 383 57 q 348 26 312 9 q 259 -17 201 -17 q 120 -17 74 38 q 31 89 31 172 q 31 250 75 303 q 102 334 158 367 q 202 393 202 404 q 202 401 186 442 q 169 484 169 513 q 169 596 218 644 q 266 692 349 692 q 420 692 461 651 q 502 610 502 539 q 502 501 471 449 q 440 396 440 400 q 440 393 460 371 q 481 349 489 349 q 490 349 533 381 q 576 412 616 412 q 646 412 654 408 q 665 401 665 375 q 665 296 653 254 q 650 243 614 231 q 581 220 581 207 q 581 206 586 201 q 602 184 639 179 q 669 175 669 166 z m 342 194 q 340 204 312 236 q 284 267 276 267 q 263 267 247 238 q 231 211 231 197 q 231 177 244 163 q 258 150 278 150 q 318 150 342 194 z"},"_":{"x_min":0,"x_max":487,"ha":487,"o":"m 492 -36 q 492 -44 488 -118 q 484 -192 483 -195 q 481 -204 474 -204 q 473 -204 470 -203 q 461 -202 399 -200 q 312 -198 220 -198 q 183 -198 110 -201 q 37 -203 0 -203 q -11 -203 -11 -183 q -11 -191 -4 -108 q -3 -71 -2 -30 q 1 -21 11 -21 q 49 -21 125 -23 q 202 -26 240 -26 q 280 -26 361 -24 q 441 -23 481 -23 q 492 -23 492 -36 z"},"v":{"x_min":0,"x_max":566,"ha":566,"o":"m 550 351 q 550 251 544 236 q 528 195 470 104 q 404 0 383 0 q 367 0 335 2 q 304 4 288 4 q 271 4 239 2 q 207 0 190 0 q 168 0 103 104 q 47 193 29 236 q 15 270 15 351 q 15 370 16 407 q 17 444 17 463 q 17 479 38 479 q 57 479 94 477 q 132 475 151 475 q 167 475 198 477 q 230 479 246 479 q 259 479 259 461 q 259 441 257 400 q 255 359 255 339 q 255 229 285 229 q 320 229 320 378 q 320 392 317 420 q 314 447 314 461 q 314 479 327 479 q 343 479 375 477 q 406 475 422 475 q 438 475 471 477 q 504 479 521 479 q 532 479 535 477 q 538 474 542 463 q 550 439 550 351 z"},"O":{"x_min":0,"x_max":776,"ha":776,"o":"m 749 342 q 749 191 643 85 q 538 -21 387 -21 q 236 -21 131 85 q 25 191 25 342 q 25 493 131 599 q 236 706 387 706 q 538 706 643 599 q 749 493 749 342 z m 499 342 q 499 389 467 423 q 434 457 387 457 q 339 457 307 423 q 275 390 275 342 q 275 295 308 262 q 341 228 387 228 q 434 228 467 261 q 499 295 499 342 z"},"(":{"x_min":0,"x_max":445,"ha":445,"o":"m 428 640 q 428 629 409 617 q 374 594 329 510 q 305 466 289 391 q 273 319 273 265 q 273 210 287 125 q 303 29 323 -10 q 355 -74 405 -107 q 424 -119 424 -130 q 424 -141 405 -177 q 386 -215 378 -215 q 374 -215 360 -210 q 318 -196 260 -161 q 202 -127 171 -98 q 105 -37 71 69 q 42 161 42 264 q 42 422 132 542 q 219 658 370 711 q 383 716 389 716 q 396 716 412 683 q 428 651 428 640 z"},"C":{"x_min":0,"x_max":652,"ha":652,"o":"m 646 588 q 646 578 600 494 q 554 411 545 404 q 538 398 531 398 q 529 398 510 414 q 487 433 465 443 q 432 459 395 459 q 348 459 316 425 q 283 391 283 344 q 283 297 316 262 q 348 228 395 228 q 474 228 516 275 q 523 283 526 283 q 532 283 586 204 q 640 123 640 109 q 640 100 629 85 q 590 35 520 7 q 456 -19 387 -19 q 236 -19 131 86 q 25 190 25 341 q 25 492 131 597 q 236 703 387 703 q 539 703 635 608 q 646 597 646 588 z"},"W":{"x_min":0,"x_max":986,"ha":986,"o":"m 961 435 q 961 434 916 338 q 867 236 865 231 q 819 128 765 14 q 760 3 760 3 q 758 0 749 0 q 732 -1 703 0 q 666 2 656 2 q 641 2 610 1 q 579 0 564 0 q 555 0 549 14 q 530 62 490 156 l 431 14 q 425 0 416 0 q 401 0 370 1 q 339 2 324 2 q 309 2 278 1 q 247 0 231 0 q 222 0 215 14 q 29 407 29 435 q 29 474 31 551 q 34 628 34 667 q 34 685 45 685 q 66 685 107 683 q 148 681 169 681 q 188 681 224 683 q 261 686 279 686 q 287 686 287 675 q 287 635 284 553 q 281 472 281 431 q 281 417 301 369 q 323 319 332 319 q 335 319 339 330 q 346 345 356 387 q 367 431 367 445 l 367 670 q 367 686 375 686 q 395 686 436 683 q 477 681 497 681 q 516 681 553 683 q 590 685 609 685 q 621 685 621 673 q 621 637 619 563 q 616 489 616 452 q 616 437 629 390 q 642 347 651 329 q 655 319 658 319 q 667 319 685 369 q 702 417 702 431 q 702 472 699 553 q 696 635 696 675 q 696 686 704 686 q 723 686 762 683 q 801 681 821 681 q 842 681 883 683 q 924 685 945 685 q 956 685 956 667 q 956 628 958 551 q 961 474 961 435 z"},"A":{"x_min":0,"x_max":729,"ha":729,"o":"m 730 7 q 730 0 711 0 q 690 0 647 2 q 605 4 584 4 q 563 4 521 2 q 480 0 459 0 q 446 0 444 15 q 444 14 444 39 q 444 58 426 58 q 312 58 292 52 q 273 46 269 21 q 265 0 253 0 q 233 0 193 2 q 153 4 133 4 q 113 4 73 2 q 34 0 14 0 q 0 0 0 12 q 0 27 231 678 q 235 690 239 693 q 242 696 254 696 q 271 696 304 691 q 338 687 355 687 q 424 687 451 694 q 457 696 459 696 q 468 696 479 679 q 484 672 519 592 q 547 530 598 406 q 623 341 664 209 q 705 77 729 13 q 730 9 730 7 z m 405 322 q 405 360 362 386 q 319 355 319 322 q 319 305 332 292 q 345 279 362 279 q 379 279 392 292 q 405 305 405 322 z"},"f":{"x_min":0,"x_max":394,"ha":394,"o":"m 386 287 q 386 273 369 273 q 327 273 301 276 l 301 200 q 301 170 304 109 q 307 48 307 18 q 307 -2 289 -2 q 272 -2 238 0 q 204 1 187 1 q 170 1 137 0 q 104 0 87 0 q 68 0 68 25 l 68 258 q 68 271 59 272 q 65 271 40 271 q 22 271 20 284 q 14 314 14 458 q 14 475 28 479 q 33 481 57 484 q 54 522 54 541 q 54 646 151 689 q 215 717 339 721 l 343 721 q 350 721 353 713 q 376 560 376 553 q 376 538 346 535 q 310 533 305 527 q 297 518 297 488 l 297 482 q 308 482 332 483 q 355 484 367 484 q 385 484 385 469 q 385 455 384 427 q 383 400 383 386 q 383 370 385 337 q 386 304 386 287 z"},"Q":{"x_min":0,"x_max":776,"ha":776,"o":"m 749 346 q 749 228 679 133 q 608 38 495 3 q 502 -10 513 -24 q 542 -60 580 -89 q 585 -93 585 -95 q 585 -106 521 -113 q 471 -118 423 -118 q 301 -118 274 -106 q 261 -100 261 -85 q 261 -62 265 7 q 157 46 91 139 q 25 232 25 346 q 25 496 131 601 q 237 706 387 706 q 537 706 643 601 q 749 496 749 346 z m 499 342 q 499 389 467 423 q 434 457 387 457 q 339 457 307 424 q 275 390 275 342 q 275 295 308 261 q 340 228 387 228 q 434 228 467 261 q 499 295 499 342 z"},"w":{"x_min":0,"x_max":803,"ha":803,"o":"m 788 351 q 788 269 774 236 q 761 206 711 120 q 660 31 642 11 q 632 0 623 0 q 612 0 591 2 q 569 4 558 4 q 545 4 519 2 q 494 0 481 0 q 456 0 394 122 q 333 0 312 0 q 301 0 279 2 q 256 4 245 4 q 234 4 212 2 q 191 0 180 0 q 164 0 91 112 q 62 156 29 236 q 15 270 15 351 q 15 435 21 463 q 24 479 42 479 q 58 479 91 477 q 123 475 139 475 q 154 475 185 477 q 215 479 230 479 q 243 479 243 461 q 243 441 242 400 q 241 359 241 339 q 241 303 242 287 q 243 278 251 257 q 261 234 268 234 q 275 234 284 257 q 292 275 294 287 q 299 314 299 353 q 299 371 296 407 q 293 443 293 461 q 293 479 306 479 q 326 479 386 477 l 409 475 q 410 476 410 475 q 410 475 410 475 l 408 475 l 405 475 l 410 476 l 430 477 q 474 479 502 479 q 515 479 515 461 q 515 443 512 407 q 509 371 509 353 q 509 326 515 287 q 523 234 535 234 q 542 234 551 257 q 560 278 561 287 q 562 303 562 339 q 562 359 561 400 q 560 441 560 461 q 560 479 573 479 q 588 479 619 477 q 649 475 664 475 q 680 475 712 477 q 745 479 761 479 q 778 479 782 463 q 788 435 788 351 z"},"-":{"x_min":0,"x_max":464,"ha":464,"o":"m 420 404 q 420 383 411 350 q 403 324 396 297 q 385 250 385 201 q 385 193 372 193 q 353 193 315 194 q 277 195 258 195 q 216 195 113 181 q 58 173 57 173 q 43 173 43 205 q 43 222 64 301 q 85 376 94 395 q 98 404 107 404 q 123 404 157 400 q 189 397 207 397 l 219 398 q 237 398 355 415 q 405 422 410 422 q 420 422 420 404 z"},"E":{"x_min":0,"x_max":591,"ha":591,"o":"m 581 196 q 581 178 575 148 q 566 106 565 101 q 561 67 549 2 q 546 -9 531 -9 q 526 -9 517 -8 q 431 4 289 4 q 250 4 172 2 q 95 0 56 0 q 40 0 40 14 q 40 69 46 178 q 52 288 52 343 q 52 398 46 550 q 45 589 41 667 l 41 674 q 40 685 53 685 q 91 685 167 683 q 244 681 282 681 q 321 681 399 683 q 477 685 516 685 q 543 685 549 660 q 551 650 559 574 q 566 499 566 488 q 566 478 556 478 q 529 478 476 483 q 423 489 396 489 q 353 489 346 488 q 308 485 308 468 q 308 444 354 438 q 366 437 416 437 q 457 437 495 441 q 544 446 535 446 q 548 446 548 432 q 548 418 543 390 q 538 355 537 346 q 531 281 531 253 q 531 242 516 242 q 520 242 473 248 q 421 254 353 254 q 308 254 308 230 q 308 218 314 213 q 328 201 461 201 q 479 201 515 204 q 551 208 569 208 q 581 208 581 196 z"},"s":{"x_min":0,"x_max":374,"ha":374,"o":"m 364 393 q 364 390 326 351 q 288 312 288 289 q 288 268 318 229 q 347 190 347 144 q 347 112 333 84 q 326 69 300 33 q 283 9 254 -24 q 215 -69 203 -69 q 196 -69 185 -61 q 81 13 24 42 q 13 47 13 52 q 13 55 56 105 q 99 156 99 188 q 99 210 66 242 q 34 274 34 314 q 34 359 86 430 q 126 484 176 529 q 184 536 189 536 q 195 536 203 528 q 236 494 354 406 q 364 398 364 393 z"},">":{"x_min":0,"x_max":445,"ha":445,"o":"m 404 204 q 404 189 387 185 q 309 164 256 125 q 215 93 173 62 q 103 8 100 8 q 95 8 93 15 q 90 28 61 86 q 33 142 33 146 q 33 152 43 164 q 69 197 120 232 q 170 267 211 280 q 214 281 218 285 q 215 289 210 291 q 197 295 170 305 q 97 334 43 396 q 33 407 33 414 q 33 419 50 451 q 71 488 72 491 q 96 546 100 546 q 105 546 117 538 q 182 493 247 448 q 321 399 387 376 q 404 370 404 357 q 404 345 402 321 q 400 297 400 285 q 400 271 402 244 q 404 217 404 204 z"},"l":{"x_min":0,"x_max":328,"ha":328,"o":"m 294 675 q 294 672 293 662 q 279 506 279 359 q 279 305 281 196 q 282 87 282 33 q 282 12 282 11 q 279 0 266 0 q 249 0 215 2 q 181 4 164 4 q 147 4 113 2 q 79 0 62 0 q 48 0 46 11 q 46 12 46 33 q 46 87 47 196 q 49 305 49 359 q 49 412 42 517 q 35 622 35 674 q 35 684 40 687 q 42 688 49 688 q 68 688 107 687 q 145 685 164 685 q 183 685 221 687 q 260 688 279 688 q 294 688 294 675 z"},"8":{"x_min":0,"x_max":524,"ha":524,"o":"m 519 167 q 519 76 436 25 q 367 -17 269 -17 q 155 -17 86 27 q 3 79 3 186 q 3 219 19 250 q 35 282 62 299 q 78 309 78 313 q 78 318 62 334 q 42 354 33 370 q 17 398 17 435 q 17 527 100 572 q 166 608 266 608 q 357 608 424 571 q 507 526 507 442 q 507 397 491 367 q 480 347 461 329 q 444 314 444 310 q 444 309 464 289 q 487 266 500 242 q 519 207 519 167 z m 330 462 q 330 492 296 492 q 265 492 265 457 q 265 445 279 427 q 292 408 304 408 q 314 408 323 431 q 330 450 330 462 z m 258 154 q 258 199 208 216 q 207 216 205 216 q 193 216 180 192 q 167 169 167 156 q 167 112 217 112 q 258 112 258 154 z"},"\\":{"x_min":0,"x_max":375,"ha":375,"o":"m 356 -16 q 356 -22 351 -25 q 331 -31 292 -45 q 271 -53 230 -70 q 226 -72 223 -72 q 214 -72 210 -60 q 200 -21 181 53 l 116 297 q 112 311 62 480 q 15 636 15 641 q 15 654 74 676 q 129 696 148 696 q 158 696 161 685 q 169 652 185 586 q 207 506 250 346 q 303 166 356 -16 z"},"e":{"x_min":0,"x_max":540,"ha":540,"o":"m 517 260 q 517 209 485 201 q 474 198 358 185 l 244 172 q 250 155 276 146 q 297 138 319 138 q 341 138 378 150 q 415 163 420 163 q 428 163 433 154 q 440 137 456 105 q 456 104 475 78 q 491 55 491 52 q 491 47 485 41 q 431 -11 298 -11 q 171 -11 100 49 q 23 113 23 237 q 23 349 97 424 q 171 500 282 500 q 378 500 448 428 q 517 357 517 260 z m 322 295 q 322 310 310 323 q 299 336 285 336 q 268 336 253 323 q 239 311 239 294 q 239 283 255 283 q 264 283 280 286 q 300 289 305 289 q 322 291 322 295 z"},"b":{"x_min":0,"x_max":624,"ha":624,"o":"m 607 243 q 607 133 550 67 q 490 -3 382 -3 q 360 -3 320 10 q 280 23 282 23 q 278 23 277 10 q 275 -4 267 -4 q 248 -4 210 -3 q 173 -1 154 -1 q 138 -1 107 -2 q 76 -3 60 -3 q 33 -3 33 10 q 33 13 34 20 q 46 102 46 312 q 46 375 34 578 q 28 681 28 676 q 28 689 44 690 q 82 689 158 691 q 176 692 217 699 q 255 705 276 705 q 285 705 285 689 q 285 672 282 637 q 279 603 279 585 l 279 473 q 279 459 284 459 q 342 491 384 491 q 493 491 552 420 q 607 354 607 243 z m 371 247 q 371 267 358 280 q 344 293 325 293 q 305 293 292 280 q 279 267 279 247 q 279 227 292 214 q 305 201 325 201 q 345 201 358 214 q 371 227 371 247 z"},"%":{"x_min":0,"x_max":868,"ha":868,"o":"m 861 189 q 861 104 801 43 q 740 -17 655 -17 q 570 -17 510 43 q 449 104 449 189 q 449 274 510 335 q 570 395 655 395 q 740 395 801 335 q 861 274 861 189 z m 613 607 q 613 603 539 462 q 458 308 454 300 q 370 126 323 -9 q 316 -28 311 -28 q 304 -28 275 -13 q 246 3 246 9 q 246 20 413 317 q 427 341 482 472 q 505 523 546 625 q 553 644 558 644 q 566 644 589 629 q 613 615 613 607 z m 419 436 q 419 351 359 290 q 298 230 213 230 q 127 230 67 290 q 7 351 7 436 q 7 521 67 582 q 127 642 213 642 q 298 642 359 582 q 419 521 419 436 z m 698 189 q 698 208 686 220 q 673 233 655 233 q 636 233 624 220 q 612 208 612 189 q 612 171 625 158 q 637 145 655 145 q 673 145 686 158 q 698 170 698 189 z m 256 436 q 256 455 244 467 q 231 480 213 480 q 194 480 182 467 q 170 455 170 436 q 170 418 183 405 q 195 392 213 392 q 231 392 244 405 q 256 417 256 436 z"},"m":{"x_min":0,"x_max":906,"ha":906,"o":"m 867 375 q 867 347 865 290 q 863 232 863 204 q 863 173 864 111 q 865 49 865 18 q 865 -2 847 -2 q 831 -2 798 0 q 765 3 749 3 q 732 3 698 1 q 664 0 647 0 q 628 0 628 25 q 628 47 629 92 q 631 136 631 158 q 631 176 629 211 q 628 247 628 264 q 628 292 602 292 q 575 292 569 249 q 569 244 569 185 q 569 157 570 102 q 571 46 571 18 q 571 -2 553 -2 q 536 -2 502 0 q 469 3 452 3 q 436 3 403 1 q 370 0 353 0 q 334 0 334 25 q 334 47 335 92 q 336 136 336 158 q 336 176 335 211 q 334 246 334 264 q 334 292 305 292 q 277 292 277 265 l 277 23 q 277 -2 253 -2 q 238 -2 208 0 q 179 3 164 3 q 147 3 114 1 q 81 0 64 0 q 43 0 43 21 l 43 252 q 43 374 26 435 q 24 440 24 444 q 24 454 33 457 q 81 463 148 473 q 154 474 199 487 q 235 497 248 497 q 258 497 269 466 q 279 435 282 435 q 278 435 328 464 q 378 492 417 492 q 527 492 559 416 q 625 492 714 492 q 772 492 816 463 q 867 430 867 375 z"},"#":{"x_min":0,"x_max":749,"ha":749,"o":"m 688 465 q 688 460 684 419 q 680 378 679 376 q 677 367 670 367 q 669 368 666 368 q 646 372 533 375 q 518 318 504 271 q 606 273 646 273 q 657 273 657 260 q 657 255 653 214 q 649 174 648 171 q 646 162 639 162 q 640 162 635 163 q 615 166 477 170 q 462 111 439 21 q 434 -1 422 -45 q 418 -57 409 -57 q 406 -57 402 -55 q 391 -50 371 -39 q 358 -35 345 -31 q 328 -25 328 -16 q 328 -26 385 171 l 346 171 q 307 171 282 170 q 265 99 227 -41 q 224 -52 215 -52 q 211 -52 207 -50 q 196 -45 176 -34 q 162 -31 138 -20 q 133 -17 133 -11 q 133 -19 188 168 q 170 167 126 165 q 87 163 65 163 q 54 163 54 178 q 54 186 57 201 q 61 218 61 223 q 62 243 63 266 q 66 275 76 275 q 102 275 147 273 q 199 271 218 271 q 227 305 245 374 q 223 374 170 371 q 123 368 96 368 q 85 368 85 383 q 85 391 88 405 q 91 423 92 428 q 92 448 94 471 q 97 480 107 480 q 138 480 190 479 q 251 477 273 476 l 313 626 q 317 648 328 690 q 331 701 341 701 q 344 701 348 699 q 359 692 381 681 q 397 677 418 669 q 422 667 422 660 q 422 656 367 475 l 469 475 q 482 524 508 623 q 513 644 523 685 q 526 697 536 697 q 540 697 555 688 q 575 678 576 677 q 588 673 601 670 q 617 665 617 655 q 617 662 562 476 q 644 478 677 478 q 688 478 688 465 z m 441 375 q 420 376 396 376 l 338 376 q 318 306 309 270 l 413 270 q 423 305 441 375 z"},",":{"x_min":0,"x_max":346,"ha":346,"o":"m 324 213 q 324 128 303 74 q 292 46 258 0 q 226 -42 201 -65 q 176 -88 140 -116 q 89 -153 74 -153 q 63 -153 27 -113 q -8 -73 -8 -60 q -8 -53 14 -28 q 42 4 55 27 q 77 67 77 112 q 77 120 74 135 q 72 151 72 158 q 72 173 84 184 q 96 195 189 217 q 278 238 303 238 q 324 238 324 213 z"},"n":{"x_min":0,"x_max":610,"ha":610,"o":"m 573 18 q 573 -2 555 -2 q 539 -2 506 0 q 473 1 457 1 q 440 1 406 0 q 372 0 355 0 q 336 0 336 25 q 336 47 337 92 q 338 136 338 158 q 338 175 337 208 q 336 241 336 258 q 336 286 308 286 q 280 286 280 259 l 280 23 q 280 -2 259 -2 q 243 -2 211 0 q 180 1 164 1 q 147 1 114 0 q 81 0 64 0 q 43 0 43 21 l 43 249 q 43 355 20 439 q 19 444 19 448 q 19 458 27 461 q 77 467 145 477 q 246 497 261 497 q 271 497 273 464 q 276 432 281 432 q 277 432 332 460 q 386 489 422 489 q 481 489 524 461 q 573 428 573 372 z"},"h":{"x_min":0,"x_max":610,"ha":610,"o":"m 575 367 q 575 309 574 192 q 573 75 573 17 q 573 -3 555 -3 q 539 -3 506 -1 q 473 1 457 1 q 440 1 406 0 q 372 0 355 0 q 336 0 336 25 q 336 47 337 92 q 338 136 338 158 q 338 175 337 208 q 336 241 336 258 q 336 286 312 286 q 287 286 287 256 l 287 22 q 287 -3 266 -3 q 250 -3 219 -1 q 187 1 171 1 q 154 1 121 0 q 88 0 71 0 q 50 0 50 21 l 50 249 q 50 371 44 520 q 44 554 43 587 q 42 628 35 654 q 34 660 34 664 q 34 672 42 676 q 93 681 165 690 q 280 713 286 713 q 295 713 295 699 q 295 684 292 658 q 290 627 289 616 q 285 525 285 444 q 285 432 289 432 q 284 432 334 460 q 383 489 425 489 q 483 489 527 458 q 575 423 575 367 z"},"z":{"x_min":0,"x_max":514,"ha":514,"o":"m 506 202 q 506 198 503 190 q 495 169 478 98 q 469 62 466 23 q 462 -18 452 -18 q 436 -18 402 -9 q 368 0 351 0 l 287 0 q 194 1 124 -6 q 64 -12 56 -12 q 43 -12 42 -6 q 41 -3 41 4 q 41 15 42 49 q 43 78 43 95 q 43 109 38 135 q 32 160 32 165 q 32 170 43 176 q 116 212 182 289 q 169 289 142 290 q 115 291 101 291 q 87 291 60 290 q 33 289 19 289 q 9 289 9 295 q 9 300 33 383 q 51 445 51 503 q 51 510 71 510 q 82 510 102 504 q 125 498 132 497 q 180 490 239 489 q 278 488 346 490 q 425 492 453 492 q 473 492 473 474 q 473 462 472 439 q 470 417 470 405 q 470 394 472 371 q 474 349 474 337 q 474 322 413 263 q 364 216 336 195 q 401 197 414 197 q 459 200 491 207 q 496 208 499 208 q 506 208 506 202 z"},"B":{"x_min":0,"x_max":699,"ha":699,"o":"m 670 211 q 670 128 613 65 q 555 0 473 0 q 429 0 340 2 q 252 4 208 4 q 183 4 132 2 q 81 0 56 0 q 40 0 40 14 q 40 67 46 174 q 52 281 52 334 q 52 390 46 546 q 45 587 41 667 l 41 674 q 40 685 53 685 l 387 685 q 510 685 581 637 q 615 614 635 571 q 654 530 654 487 q 654 453 625 407 q 597 361 597 366 q 597 362 609 353 q 670 307 670 211 z m 388 480 q 388 518 312 518 q 295 518 292 510 q 290 507 290 485 q 290 463 292 458 q 296 450 315 450 q 388 450 388 480 z m 405 230 q 405 270 316 270 q 295 270 292 263 q 290 260 290 235 q 290 210 292 206 q 297 198 319 198 q 359 198 371 200 q 405 207 405 230 z"},"K":{"x_min":0,"x_max":716,"ha":716,"o":"m 703 28 q 703 21 694 10 q 685 0 678 0 q 665 0 637 2 q 610 4 597 4 q 570 4 517 2 q 463 0 436 0 q 428 0 426 6 q 423 12 421 18 q 409 48 383 97 q 352 156 343 175 q 331 206 318 238 q 316 240 315 240 q 306 240 306 216 q 306 183 309 117 q 312 51 312 18 q 312 0 297 0 q 276 0 234 2 q 192 4 171 4 q 152 4 114 2 q 75 0 56 0 q 40 0 40 14 q 40 67 45 174 q 50 281 50 334 q 50 391 45 504 q 41 618 41 674 q 41 685 52 685 q 73 685 114 683 q 155 681 176 681 q 197 681 238 683 q 280 686 300 686 q 308 686 308 676 q 308 642 306 573 q 303 504 303 470 q 303 451 306 445 q 310 437 327 437 q 390 437 406 551 q 416 620 450 673 q 460 688 575 688 q 701 688 701 674 q 701 671 698 667 q 678 636 678 636 q 668 620 665 600 q 652 532 651 524 q 641 482 626 452 q 607 415 571 379 q 545 354 545 345 q 545 342 572 276 q 589 232 628 148 q 633 140 702 32 q 703 30 703 28 z"},"R":{"x_min":0,"x_max":679,"ha":679,"o":"m 675 5 q 675 0 662 0 q 641 0 598 2 q 556 4 535 4 q 515 4 474 2 q 434 0 414 0 q 397 0 392 12 q 383 34 367 79 q 351 119 321 200 q 314 221 308 221 q 304 221 304 205 q 304 172 310 105 q 317 39 317 8 q 317 -3 307 -3 q 304 -3 295 -2 q 253 4 168 4 q 149 4 112 2 q 75 0 56 0 q 40 0 40 14 q 40 69 46 178 q 52 288 52 343 q 52 482 38 667 l 38 674 q 37 684 47 685 q 46 685 65 685 q 119 685 226 687 q 333 688 387 688 q 501 688 576 640 q 662 583 662 474 q 662 404 641 361 q 621 318 566 279 q 554 271 554 263 q 554 257 615 134 q 675 11 675 5 z m 399 439 q 399 494 318 494 q 298 494 298 433 q 298 426 299 411 q 300 396 300 389 q 300 382 320 382 q 399 382 399 439 z"},"T":{"x_min":0,"x_max":543,"ha":543,"o":"m 535 487 q 535 478 524 478 q 536 478 402 485 q 400 399 400 374 q 400 314 405 194 q 410 74 410 14 q 410 0 396 0 q 375 0 333 2 q 291 4 270 4 q 250 4 210 2 q 170 0 150 0 q 134 0 134 14 q 134 74 139 194 q 144 314 144 374 q 144 398 142 482 q 99 479 13 471 q 5 475 5 476 q 5 481 14 525 q 23 574 24 582 q 25 627 34 690 q 35 694 41 694 q 43 694 49 693 q 146 682 289 682 q 333 682 452 693 q 512 699 516 699 q 531 699 531 692 q 531 674 528 639 q 526 604 526 586 q 526 569 530 537 q 535 504 535 487 z"},"P":{"x_min":0,"x_max":679,"ha":679,"o":"m 659 415 q 659 284 591 210 q 521 133 392 133 q 382 133 363 135 q 344 136 334 136 q 308 136 308 121 q 308 102 312 64 q 317 26 317 8 q 317 -3 307 -3 q 304 -3 295 -2 q 252 4 168 4 q 149 4 112 2 q 75 0 56 0 q 40 0 40 14 q 40 69 46 178 q 52 288 52 343 q 52 482 38 667 l 38 674 q 37 685 49 685 q 80 685 140 683 q 201 681 231 681 q 257 681 309 683 q 360 685 386 685 q 507 685 583 611 q 659 536 659 415 z m 394 408 q 394 480 324 480 q 304 480 304 408 q 304 397 305 375 q 306 353 306 342 q 306 334 321 334 q 394 334 394 408 z"},"|":{"x_min":0,"x_max":375,"ha":375,"o":"m 265 -43 q 266 -53 258 -56 q 247 -60 227 -59 q 204 -59 196 -60 q 142 -69 125 -69 q 114 -69 113 -54 q 113 -59 113 7 l 114 338 q 114 432 109 568 q 109 578 106 616 q 105 645 105 663 q 105 677 113 681 q 118 684 145 689 q 173 694 179 694 q 189 694 210 693 q 230 693 241 693 q 256 693 257 679 q 259 661 257 615 q 255 555 255 549 l 256 328 q 256 130 265 -39 z"},"t":{"x_min":0,"x_max":421,"ha":421,"o":"m 403 187 q 403 167 399 125 q 394 84 394 63 q 394 45 390 39 q 386 34 368 24 q 311 -7 223 -7 q 56 -7 56 102 q 56 128 59 180 q 61 233 61 259 q 61 279 38 280 q 15 280 15 295 q 15 306 17 328 q 18 351 18 362 q 18 375 16 399 q 15 424 15 436 q 15 447 34 453 q 54 460 54 473 l 54 534 q 54 603 54 592 q 56 639 68 639 q 80 639 116 630 q 155 621 169 620 q 178 619 221 613 q 252 609 272 609 q 286 609 286 598 q 286 581 282 545 q 279 510 279 492 q 279 478 293 478 q 309 478 340 479 q 371 481 386 481 q 398 481 398 472 q 398 457 395 426 q 391 396 391 380 q 391 364 392 333 q 393 302 393 286 q 393 274 378 274 q 364 274 335 275 q 307 276 293 276 q 279 276 279 260 q 279 217 319 202 q 342 193 395 193 q 403 193 403 187 z"},"M":{"x_min":0,"x_max":848,"ha":848,"o":"m 808 14 q 808 0 792 0 q 773 0 735 2 q 696 4 677 4 q 658 4 619 2 q 580 0 561 0 q 546 0 546 18 q 546 51 549 117 q 552 183 552 216 q 552 230 549 230 q 540 230 487 107 q 434 -16 424 -16 q 410 -16 359 107 q 309 230 299 230 q 296 230 296 216 q 296 183 299 117 q 302 51 302 18 q 302 0 287 0 q 268 0 229 2 q 190 4 171 4 q 152 4 114 2 q 75 0 56 0 q 40 0 40 14 q 40 67 45 174 q 50 281 50 334 q 50 391 45 504 q 41 618 41 674 q 41 685 62 685 q 79 685 111 687 q 143 688 159 688 q 177 688 214 692 q 251 696 270 696 q 274 696 287 675 q 340 589 401 476 q 422 436 426 436 q 433 436 449 473 q 466 513 501 572 q 551 656 558 669 q 569 690 578 690 q 596 690 633 688 q 670 686 689 686 q 707 686 742 689 q 778 692 796 692 q 808 692 808 681 q 808 624 803 508 q 798 392 798 334 q 798 281 803 174 q 808 67 808 14 z"},"g":{"x_min":0,"x_max":612,"ha":612,"o":"m 581 467 q 581 430 578 357 q 576 284 576 247 q 576 231 577 198 q 577 166 577 150 q 577 17 544 -34 q 473 -143 276 -143 q 228 -143 157 -131 q 60 -116 60 -91 q 73 -36 89 32 q 93 51 102 51 q 103 51 106 50 q 188 28 237 28 q 263 28 290 35 q 327 43 327 61 l 327 82 q 288 64 229 64 q 135 64 75 124 q 16 183 16 277 q 16 371 72 433 q 130 498 223 498 q 273 498 306 470 q 320 455 334 440 q 336 443 336 450 q 336 456 334 469 q 333 481 333 488 q 333 497 339 497 q 350 497 459 489 q 569 480 572 479 q 581 476 581 467 z m 344 269 q 344 287 332 300 q 319 312 301 312 q 283 312 271 300 q 258 287 258 269 q 258 251 271 239 q 283 226 301 226 q 318 226 331 239 q 344 251 344 269 z"},"j":{"x_min":0,"x_max":334,"ha":334,"o":"m 295 598 q 295 495 170 495 q 117 495 83 520 q 45 547 45 598 q 45 646 84 676 q 121 703 170 703 q 219 703 255 676 q 295 646 295 598 z m 292 475 q 292 465 291 446 q 289 427 289 417 q 289 391 288 338 q 287 285 287 259 q 287 234 289 186 q 291 137 291 112 q 291 14 216 -50 q 145 -111 44 -111 q 32 -111 21 -109 q 6 -106 3 -74 q 3 -70 3 -28 q 3 -12 29 13 q 55 37 55 71 q 55 101 53 160 q 52 219 52 249 q 52 391 36 450 q 35 456 35 459 q 35 469 43 472 q 92 474 157 477 q 195 479 269 488 q 276 489 279 489 q 292 489 292 475 z"},"i":{"x_min":0,"x_max":328,"ha":328,"o":"m 292 593 q 292 490 167 490 q 114 490 80 515 q 42 542 42 593 q 42 641 82 671 q 118 698 167 698 q 216 698 252 671 q 292 641 292 593 z m 297 469 q 297 465 296 456 q 279 272 279 224 q 279 191 281 126 q 282 60 282 27 q 282 11 281 8 q 279 0 266 0 q 249 0 215 2 q 181 4 164 4 q 147 4 113 2 q 79 0 62 0 q 49 0 47 8 q 46 11 46 27 q 46 60 47 126 q 49 191 49 224 q 49 298 32 456 q 31 465 31 469 q 31 482 46 482 q 65 482 105 476 q 144 469 164 469 q 184 469 223 476 q 263 482 282 482 q 297 482 297 469 z"},"y":{"x_min":0,"x_max":584,"ha":584,"o":"m 566 351 q 566 252 559 226 q 550 194 442 29 q 386 -56 300 -154 q 291 -165 281 -165 q 268 -165 241 -164 q 214 -163 201 -163 q 181 -163 142 -166 q 103 -170 83 -170 q 73 -170 64 -159 q 56 -130 45 -91 q 43 -87 24 -45 q 8 -12 8 -1 q 8 9 15 9 q 21 9 35 8 q 48 7 55 7 q 116 7 141 30 q 150 39 150 42 q 150 45 143 52 q 125 68 73 147 q 22 226 16 249 q 15 255 15 281 q 15 312 16 372 q 17 433 17 463 q 17 479 38 479 q 56 479 91 477 q 126 475 144 475 q 161 475 195 477 q 229 479 246 479 q 259 479 259 461 q 259 441 257 400 q 255 359 255 339 q 255 229 285 229 q 321 229 321 378 q 321 392 319 420 q 317 447 317 461 q 317 479 330 479 q 346 479 377 477 q 408 475 423 475 q 442 475 480 477 q 518 479 537 479 q 553 479 558 463 q 566 438 566 351 z"},"@":{"x_min":0,"x_max":752,"ha":752,"o":"m 712 342 q 712 327 643 241 q 574 156 558 153 q 548 151 532 151 q 503 151 491 172 q 479 193 472 193 q 475 193 441 175 q 408 157 376 157 q 306 157 260 211 q 217 262 217 333 q 217 420 261 471 q 308 525 394 525 q 425 525 467 506 q 508 487 512 487 q 529 487 529 501 q 529 509 517 521 q 469 572 387 572 q 293 572 228 504 q 163 437 163 342 q 163 242 225 179 q 288 114 387 114 q 402 114 402 106 l 402 -11 q 402 -21 387 -21 q 236 -21 131 85 q 25 191 25 342 q 25 493 131 599 q 236 706 387 706 q 540 706 629 599 q 712 498 712 342 z m 509 341 q 509 389 453 389 q 406 389 406 341 q 406 320 420 307 q 434 294 455 294 q 509 294 509 341 z"},".":{"x_min":0,"x_max":346,"ha":346,"o":"m 326 141 q 326 78 281 33 q 236 -12 173 -12 q 110 -12 65 33 q 20 78 20 141 q 20 204 65 249 q 110 294 173 294 q 236 294 281 249 q 326 204 326 141 z"},"p":{"x_min":0,"x_max":640,"ha":640,"o":"m 622 232 q 622 128 558 57 q 492 -16 389 -16 q 349 -16 289 16 q 284 16 284 2 q 284 -20 283 -63 q 282 -107 282 -129 q 282 -154 261 -154 q 113 -154 64 -150 q 43 -148 43 -129 l 43 249 q 43 350 27 454 q 26 460 26 463 q 26 473 34 476 q 86 480 156 487 q 156 487 217 497 q 259 504 275 504 q 290 504 294 485 q 298 465 304 465 q 313 465 342 472 q 372 478 387 478 q 490 478 557 406 q 622 336 622 232 z m 375 236 q 375 255 362 270 q 349 284 330 284 q 311 284 298 270 q 285 255 285 236 q 285 217 298 203 q 312 188 330 188 q 349 188 362 202 q 375 216 375 236 z"},"X":{"x_min":0,"x_max":659,"ha":659,"o":"m 615 10 q 615 0 594 0 l 433 0 q 424 0 376 68 q 328 135 326 136 q 316 128 271 61 q 229 0 219 0 l 58 0 q 37 0 37 10 l 37 167 q 37 180 97 253 q 157 326 157 343 q 157 358 96 432 q 35 505 35 518 q 35 531 36 557 q 36 583 36 596 q 36 610 34 639 q 32 667 32 681 q 32 691 53 691 q 67 691 97 687 q 126 683 141 683 q 153 683 178 684 q 204 685 216 685 q 225 685 274 617 q 322 550 324 549 q 333 557 382 624 q 427 685 437 685 l 592 685 q 613 685 613 675 q 613 662 611 635 q 610 607 610 594 q 610 581 611 554 q 613 527 613 514 q 613 498 552 422 q 490 346 490 344 q 490 334 553 259 q 615 184 615 173 z"},"*":{"x_min":0,"x_max":490,"ha":490,"o":"m 461 506 q 461 495 455 490 q 455 490 398 452 q 353 421 353 413 q 353 411 375 368 q 397 325 397 304 q 397 283 380 269 q 363 255 341 255 q 328 255 290 294 q 251 333 241 333 q 229 333 194 296 q 159 258 146 258 q 124 258 107 272 q 90 286 90 307 q 90 328 109 370 q 129 412 129 413 q 129 424 78 452 q 24 482 19 494 q 16 500 16 509 q 16 523 25 537 q 35 551 48 553 q 102 560 159 560 q 176 560 180 579 q 188 623 203 677 q 214 692 241 692 q 268 692 279 677 q 286 667 302 579 q 306 560 323 560 q 379 560 428 553 q 441 551 451 536 q 461 521 461 506 z"},"Y":{"x_min":0,"x_max":655,"ha":655,"o":"m 642 673 q 642 647 640 594 q 637 541 637 514 q 637 488 630 472 q 560 315 475 206 q 457 183 457 169 q 457 143 460 91 q 464 40 464 14 q 464 0 450 0 q 429 0 386 2 q 344 4 323 4 q 303 4 262 2 q 222 0 202 0 q 186 0 186 14 q 186 40 191 91 q 196 143 196 169 q 196 185 184 208 q 155 254 101 341 q 70 394 36 458 q 25 478 25 492 q 24 519 19 580 q 13 636 13 667 q 13 685 24 685 q 43 685 82 683 q 120 681 139 681 q 162 681 209 683 q 256 686 279 686 q 286 686 286 675 q 284 603 284 532 q 284 520 302 489 q 317 462 328 450 q 339 462 354 488 q 370 517 370 529 q 370 553 367 602 q 364 651 364 675 q 364 686 371 686 q 392 686 434 683 q 476 681 497 681 q 519 681 563 683 q 608 685 630 685 q 642 685 642 673 z"},"c":{"x_min":0,"x_max":431,"ha":431,"o":"m 420 457 q 420 450 401 379 q 382 311 377 298 q 372 285 363 285 q 355 285 341 287 q 326 288 318 288 q 298 288 284 276 q 270 263 270 243 q 270 198 318 198 q 330 198 349 205 q 369 211 372 211 q 385 211 402 129 q 417 57 417 29 q 417 13 353 -1 q 301 -12 273 -12 q 170 -12 93 64 q 16 140 16 243 q 16 353 89 425 q 163 497 273 497 q 352 497 404 471 q 420 463 420 457 z"},"!":{"x_min":0,"x_max":327,"ha":327,"o":"m 291 572 q 291 498 283 458 q 274 418 253 359 l 218 261 q 213 245 196 245 l 166 245 l 129 245 q 114 245 108 259 q 47 407 47 429 l 48 668 q 48 685 60 685 q 78 685 115 683 q 151 681 169 681 q 187 681 223 683 q 260 685 278 685 q 290 685 290 668 q 290 652 291 620 q 291 588 291 572 z m 289 108 q 289 55 256 21 q 222 -12 169 -12 q 116 -12 82 21 q 49 55 49 108 q 49 162 82 195 q 115 228 169 228 q 222 228 256 195 q 289 161 289 108 z"},"/":{"x_min":0,"x_max":375,"ha":375,"o":"m 357 641 q 357 636 310 480 q 260 311 256 297 q 229 198 191 53 q 183 15 162 -60 q 158 -72 149 -72 q 146 -72 142 -70 q 121 -62 80 -45 q 59 -40 21 -25 q 16 -22 16 -16 q 65 150 122 346 l 187 586 q 194 620 211 685 q 214 696 224 696 q 243 696 298 676 q 357 654 357 641 z"},"[":{"x_min":0,"x_max":458,"ha":458,"o":"m 433 -73 q 433 -165 431 -177 q 429 -191 419 -191 q 394 -191 344 -189 q 293 -187 268 -187 q 239 -187 180 -189 q 121 -191 92 -191 q 76 -191 76 -174 q 76 -105 83 34 q 91 173 91 242 q 91 314 83 458 q 76 602 76 674 q 76 691 92 691 q 121 691 180 689 q 239 687 268 687 q 293 687 344 689 q 394 691 419 691 q 429 691 431 677 q 433 665 433 573 q 433 550 421 550 q 408 550 382 553 q 356 557 344 557 l 304 558 q 278 558 275 540 q 273 533 270 442 q 264 291 264 242 q 264 189 270 58 q 270 24 275 -40 q 278 -58 304 -58 l 344 -57 q 356 -57 382 -53 q 408 -50 421 -50 q 433 -50 433 -73 z"},"6":{"x_min":0,"x_max":597,"ha":597,"o":"m 584 215 q 584 99 500 38 q 425 -16 304 -16 q 177 -16 96 61 q 16 138 16 265 q 16 433 148 527 q 265 610 439 610 q 449 610 455 595 q 505 469 505 454 q 505 444 497 435 q 490 425 480 425 q 467 425 442 427 q 416 428 403 428 q 375 428 344 420 q 303 409 298 390 q 300 389 303 389 q 306 389 312 391 q 342 399 386 399 q 472 399 526 351 q 584 300 584 215 z m 355 212 q 355 232 342 246 q 328 260 308 260 q 288 260 275 246 q 261 232 261 212 q 261 192 275 178 q 289 164 308 164 q 328 164 342 178 q 355 192 355 212 z"},"r":{"x_min":0,"x_max":422,"ha":422,"o":"m 404 461 q 404 443 401 406 q 398 370 398 351 q 398 333 399 297 q 401 260 401 242 q 401 221 356 221 q 346 221 329 222 q 312 223 308 223 q 273 223 273 196 q 273 167 276 109 q 280 52 280 23 q 280 -2 259 -2 q 243 -2 211 0 q 180 1 164 1 q 147 1 114 0 q 81 0 64 0 q 43 0 43 21 l 43 249 q 43 355 22 432 q 21 438 21 441 q 21 451 29 454 q 41 458 80 462 q 125 466 136 468 q 236 488 242 488 q 252 488 254 456 q 256 423 263 423 q 259 423 302 450 q 346 476 391 476 q 404 476 404 461 z"},"2":{"x_min":0,"x_max":548,"ha":548,"o":"m 545 187 q 545 172 542 142 q 538 111 538 96 q 538 79 538 44 q 537 10 537 -7 q 537 -21 520 -21 q 519 -21 473 -10 q 415 4 296 4 q 257 4 180 0 q 104 -5 65 -5 q 43 -5 43 11 q 43 56 18 140 q 15 150 15 153 q 15 166 56 172 q 82 174 108 177 q 139 181 197 251 q 256 321 256 353 q 256 406 200 406 q 149 406 102 381 q 54 356 57 356 q 37 356 34 385 q 35 378 35 428 q 35 454 25 493 q 15 532 15 539 q 15 546 26 553 q 106 606 264 606 q 360 606 427 566 q 508 517 508 427 q 508 351 474 299 q 451 263 382 202 q 516 208 529 208 q 545 208 545 187 z"},"{":{"x_min":0,"x_max":440,"ha":440,"o":"m 389 -182 q 389 -196 283 -196 q 194 -196 150 -177 q 84 -149 84 -72 q 84 -45 106 19 q 128 83 128 109 q 128 128 120 147 q 110 170 95 176 q 92 177 60 181 q 37 183 37 192 q 37 202 41 221 q 45 241 45 251 q 45 261 41 280 q 37 299 37 309 q 37 319 52 319 q 130 319 130 385 q 130 410 107 478 q 84 546 84 573 q 84 649 151 678 q 195 697 283 697 q 389 697 389 683 q 389 675 386 659 q 383 643 383 634 q 383 624 385 604 q 386 583 386 573 q 386 560 372 560 q 358 560 330 562 q 302 565 288 565 q 263 565 263 542 q 263 527 277 471 q 292 415 292 389 q 292 324 239 286 q 191 251 124 251 q 191 251 239 216 q 292 177 292 112 q 292 86 277 29 q 263 -27 263 -42 q 263 -68 288 -68 q 303 -68 332 -63 q 362 -59 376 -59 q 386 -59 386 -72 q 386 -81 385 -97 q 383 -114 383 -123 q 383 -133 386 -153 q 389 -172 389 -182 z"},"9":{"x_min":0,"x_max":597,"ha":597,"o":"m 584 325 q 584 223 525 137 q 418 -17 153 -17 q 143 -17 137 -2 q 90 115 90 146 q 90 165 116 165 q 129 165 155 164 q 181 162 194 162 q 220 162 252 170 q 295 181 299 200 q 298 201 294 201 q 292 201 285 199 q 254 191 211 191 q 125 191 69 239 q 11 290 11 375 q 11 492 97 553 q 172 606 294 606 q 422 606 502 530 q 584 452 584 325 z m 333 378 q 333 396 320 410 q 307 424 288 424 q 269 424 256 411 q 243 397 243 378 q 243 358 256 345 q 269 332 288 332 q 307 332 320 345 q 333 358 333 378 z"}," ":{"x_min":0,"x_max":250,"ha":250,"o":""},"I":{"x_min":0,"x_max":358,"ha":358,"o":"m 318 14 q 318 0 304 0 q 283 0 240 2 q 198 4 177 4 q 157 4 116 2 q 76 0 56 0 q 40 0 40 14 q 40 74 45 194 q 50 314 50 374 q 50 424 45 525 q 41 625 41 674 q 41 685 52 685 q 74 685 117 683 q 160 681 182 681 q 203 681 244 683 q 285 685 305 685 q 317 685 317 673 q 317 624 313 524 q 308 424 308 374 q 308 314 313 194 q 318 74 318 14 z"},"H":{"x_min":0,"x_max":773,"ha":773,"o":"m 733 14 q 733 0 719 0 q 698 0 658 2 q 617 4 597 4 q 576 4 535 2 q 494 0 473 0 q 458 0 458 18 q 458 51 462 117 q 467 183 467 216 q 467 235 455 238 q 437 242 387 242 q 337 242 318 238 q 306 235 306 216 q 306 183 309 117 q 312 51 312 18 q 312 0 297 0 q 276 0 234 2 q 192 4 171 4 q 152 4 114 2 q 75 0 56 0 q 40 0 40 14 q 40 67 45 174 q 50 281 50 334 q 50 391 45 504 q 41 618 41 674 q 41 685 52 685 q 73 685 114 683 q 155 681 176 681 q 198 681 241 683 q 285 686 307 686 q 314 686 314 676 q 314 643 307 576 q 300 509 300 476 q 300 468 309 466 q 329 462 387 462 q 441 462 460 466 q 472 469 472 485 q 472 516 468 577 q 464 639 464 670 q 464 686 472 686 q 492 686 534 683 q 576 681 597 681 q 618 681 659 683 q 700 685 720 685 q 732 685 732 673 q 732 617 728 504 q 723 391 723 334 q 723 281 728 174 q 733 67 733 14 z"},"4":{"x_min":0,"x_max":603,"ha":603,"o":"m 569 92 q 569 77 549 76 q 567 77 518 77 q 508 77 506 64 q 504 55 505 37 q 507 14 507 16 q 507 1 505 -2 q 502 -7 489 -7 q 475 -7 446 -3 q 417 0 403 0 q 376 0 323 -5 q 271 -10 246 -10 q 241 -10 235 -8 q 229 -2 229 2 q 229 4 240 29 q 250 53 250 63 q 250 80 236 80 q 205 80 143 78 q 81 76 50 76 q 15 76 15 113 l 15 241 q 15 258 28 270 q 124 357 244 556 q 254 576 265 596 q 282 627 291 627 q 297 627 339 614 q 391 598 394 597 q 452 582 493 582 q 510 582 510 564 q 510 539 505 489 q 501 439 501 414 q 501 396 500 355 q 500 317 500 296 l 500 261 q 509 261 530 266 q 550 270 560 270 q 566 270 566 256 q 566 243 565 218 q 565 193 565 180 q 565 166 567 136 q 569 106 569 92 z m 279 385 q 279 395 272 395 q 267 395 250 357 q 223 297 187 257 q 174 243 174 240 q 174 235 186 235 l 262 235 q 264 270 267 306 q 270 347 277 375 q 279 382 279 385 z"},"~":{"x_min":0,"x_max":592,"ha":592,"o":"m 600 296 q 600 284 555 245 q 522 216 498 199 q 462 173 446 166 q 418 152 387 152 q 341 152 302 181 q 263 210 242 210 q 219 210 180 173 q 142 135 138 135 q 133 135 125 145 q 96 184 68 223 q 36 264 3 296 q -5 304 -5 310 q -5 315 2 323 q 134 465 217 465 q 257 465 289 433 q 320 400 343 400 q 375 400 425 443 q 476 486 479 486 q 483 486 489 475 q 518 418 592 314 q 600 303 600 296 z"},"D":{"x_min":0,"x_max":736,"ha":736,"o":"m 711 346 q 711 278 683 208 q 656 139 609 90 q 522 0 380 0 q 351 0 294 2 q 237 4 208 4 q 183 4 132 2 q 81 0 56 0 q 40 0 40 14 q 40 67 45 174 q 50 281 50 334 q 50 391 45 504 q 41 618 41 674 q 41 685 53 685 l 176 685 q 194 685 229 686 q 265 686 284 686 q 481 686 572 626 q 635 584 674 502 q 711 425 711 346 z m 459 346 q 459 404 420 444 q 380 485 323 485 q 299 485 299 465 q 299 444 298 403 q 297 362 297 342 q 297 322 298 282 q 299 242 299 222 q 299 200 326 200 q 385 200 423 244 q 459 286 459 346 z"},"^":{"x_min":0,"x_max":574,"ha":574,"o":"m 553 193 q 553 189 546 187 q 533 184 475 155 q 418 127 416 127 q 409 127 397 137 q 363 163 329 214 q 294 264 281 305 q 280 308 276 312 q 272 309 270 304 q 266 291 256 264 q 227 190 165 137 q 154 127 147 127 q 142 127 110 145 q 73 165 70 166 q 15 190 15 194 q 15 199 23 211 q 108 333 113 340 q 155 406 185 481 q 192 498 204 498 q 216 498 240 496 q 264 494 276 494 q 290 494 317 496 q 344 498 357 498 q 372 498 376 481 q 397 403 436 350 q 468 309 500 267 q 553 197 553 193 z"},"0":{"x_min":0,"x_max":662,"ha":662,"o":"m 642 295 q 642 166 551 75 q 460 -16 331 -16 q 202 -16 111 75 q 20 166 20 295 q 20 424 111 515 q 202 606 331 606 q 460 606 551 515 q 642 424 642 295 z m 397 295 q 397 322 377 341 q 358 361 331 361 q 304 361 285 341 q 265 322 265 295 q 265 268 285 249 q 304 229 331 229 q 358 229 377 249 q 397 268 397 295 z"},"F":{"x_min":0,"x_max":590,"ha":590,"o":"m 577 476 q 577 466 567 466 q 563 466 553 467 q 430 484 375 484 q 334 484 336 484 q 308 482 308 468 q 308 445 354 440 q 363 439 416 439 q 457 439 487 442 q 530 446 520 446 q 533 446 533 429 q 533 414 531 382 q 529 350 529 334 q 529 319 530 288 q 531 257 531 242 q 531 231 516 231 q 520 231 473 237 q 421 244 353 244 q 308 244 308 219 q 308 143 312 77 q 312 69 315 42 q 317 21 317 8 q 317 -3 299 -3 q 294 -3 285 -2 q 243 4 168 4 q 149 4 112 2 q 75 0 56 0 q 40 0 40 14 q 40 4 44 103 q 52 272 52 344 q 52 393 38 667 l 38 673 q 37 685 50 685 q 88 685 166 683 q 243 681 282 681 q 323 681 404 688 q 485 695 526 695 q 556 695 560 663 q 559 636 562 584 q 577 488 577 476 z"},"`":{"x_min":0,"x_max":391,"ha":391,"o":"m 368 610 q 368 596 365 569 q 363 541 363 527 q 363 514 353 514 l 348 514 q 270 521 183 554 q 86 590 36 638 q 29 645 29 650 q 29 655 38 662 q 55 673 89 697 q 104 712 136 740 q 139 743 146 746 q 189 716 258 674 q 291 657 357 623 q 368 618 368 610 z"},"k":{"x_min":0,"x_max":641,"ha":641,"o":"m 636 327 q 636 272 606 232 q 588 207 552 181 q 523 161 523 155 q 523 146 565 83 q 607 19 607 14 q 607 -1 506 -1 l 423 -1 q 369 -1 364 8 q 312 101 303 101 q 298 101 283 98 q 283 84 284 56 q 285 27 285 13 q 285 -4 273 -4 q 253 -4 214 -2 q 174 1 154 1 q 138 1 106 0 q 75 -1 59 -1 q 44 -1 44 20 q 44 69 44 167 q 45 265 45 314 q 45 375 40 495 q 35 616 35 676 q 35 689 51 690 q 87 690 158 691 q 178 692 224 699 q 266 705 289 705 q 298 705 298 689 q 298 705 289 585 q 286 543 286 467 q 286 452 292 452 q 294 452 301 455 q 361 488 423 488 q 636 488 636 327 z m 372 263 q 372 283 359 297 q 345 310 325 310 q 279 310 279 278 l 279 240 q 279 213 325 213 q 346 213 359 227 q 372 242 372 263 z"},"u":{"x_min":0,"x_max":614,"ha":614,"o":"m 585 462 q 585 423 581 344 q 577 266 577 227 q 577 193 580 125 q 583 56 583 22 q 583 7 576 2 q 571 0 555 0 q 539 0 506 1 q 474 2 458 2 q 440 2 405 -1 q 370 -4 353 -4 q 343 -4 341 26 q 338 56 333 56 q 337 56 289 27 q 241 -2 196 -2 q 70 -2 45 115 q 32 175 32 272 q 32 401 52 465 q 58 485 76 485 q 90 485 119 483 q 148 482 163 482 q 180 482 213 482 q 246 483 263 483 q 282 483 282 464 q 282 440 279 391 q 275 342 275 318 q 275 190 310 190 q 338 190 338 217 l 338 445 q 338 470 348 477 q 356 483 382 483 l 564 483 q 585 483 585 462 z"},"]":{"x_min":0,"x_max":458,"ha":458,"o":"m 382 674 q 382 602 375 458 q 367 314 367 242 q 367 173 375 34 q 382 -105 382 -174 q 382 -191 366 -191 q 337 -191 278 -189 q 219 -187 190 -187 q 165 -187 115 -189 q 64 -191 39 -191 q 29 -191 27 -177 q 25 -165 25 -73 q 25 -50 37 -50 q 50 -50 76 -53 q 102 -57 114 -57 l 154 -58 q 180 -58 183 -40 q 185 -31 188 58 q 194 189 194 242 q 194 291 188 442 q 188 476 183 540 q 180 558 154 558 l 114 557 q 102 557 76 553 q 50 550 37 550 q 25 550 25 573 q 25 665 27 677 q 29 691 39 691 q 64 691 115 689 q 165 687 190 687 q 219 687 278 689 q 337 691 366 691 q 382 691 382 674 z"},"U":{"x_min":0,"x_max":698,"ha":698,"o":"m 661 673 q 661 617 656 504 q 652 391 652 334 q 652 318 652 286 q 653 254 653 238 q 653 103 614 57 q 555 -13 327 -13 q 199 -13 137 13 q 80 37 60 94 q 45 137 45 237 q 45 251 46 283 q 46 315 46 334 q 46 391 41 504 q 37 618 37 674 q 37 685 48 685 q 84 685 157 684 q 230 683 267 683 q 298 683 291 684 q 307 682 307 673 q 307 617 302 504 q 297 391 297 335 q 297 329 296 313 q 296 297 296 289 q 296 195 354 195 q 401 195 401 268 q 401 334 397 467 q 393 601 393 667 q 393 682 401 682 q 419 684 462 683 q 521 681 526 681 q 546 681 587 683 q 628 685 649 685 q 661 685 661 673 z"},"o":{"x_min":0,"x_max":546,"ha":546,"o":"m 530 246 q 530 134 458 61 q 385 -12 273 -12 q 164 -12 90 59 q 16 130 16 239 q 16 354 87 428 q 160 504 273 504 q 385 504 458 431 q 530 358 530 246 z m 318 246 q 318 265 305 279 q 292 292 273 292 q 254 292 241 279 q 228 266 228 246 q 228 227 241 214 q 254 200 273 200 q 292 200 305 213 q 318 227 318 246 z"},"N":{"x_min":0,"x_max":770,"ha":770,"o":"m 731 672 q 731 616 726 504 q 720 392 720 336 l 719 11 q 719 0 702 0 q 686 0 654 2 q 622 4 606 4 q 589 4 556 2 q 522 0 505 0 q 497 0 485 16 q 308 261 293 261 q 286 261 286 247 q 286 209 289 133 q 292 56 292 18 q 292 0 277 0 q 259 0 224 2 q 188 4 171 4 q 152 4 114 2 q 75 0 56 0 q 40 0 40 14 q 40 67 45 174 q 50 281 50 334 q 50 390 45 501 q 41 612 41 667 q 41 678 61 678 q 83 678 156 686 q 166 687 208 694 q 240 700 260 700 q 267 700 280 679 q 288 666 358 567 q 396 512 477 407 q 482 411 482 439 q 482 477 476 552 q 469 628 469 666 q 469 685 479 685 q 499 685 538 684 q 577 682 596 682 q 617 682 659 684 q 701 685 722 685 q 731 685 731 672 z"},"+":{"x_min":0,"x_max":541,"ha":541,"o":"m 518 373 q 518 361 509 213 q 506 204 500 204 q 474 204 427 207 q 376 208 354 209 q 354 193 357 135 q 359 90 359 62 q 359 42 261 42 q 183 42 176 45 q 167 49 167 58 q 167 86 168 134 q 171 190 171 210 q 156 209 99 207 q 54 205 26 205 q 15 205 15 219 q 15 221 22 300 q 22 337 24 378 q 28 387 37 387 q 63 387 104 386 q 158 384 171 384 q 169 500 169 528 q 169 538 187 538 q 210 538 257 540 q 304 541 328 541 q 360 541 360 531 q 360 505 357 457 q 355 405 355 383 q 476 385 507 385 q 518 385 518 373 z"},"G":{"x_min":0,"x_max":753,"ha":753,"o":"m 727 27 q 727 12 709 12 q 685 12 638 21 q 589 29 566 30 q 471 -19 387 -19 q 238 -19 132 87 q 25 192 25 341 q 25 493 130 598 q 235 703 387 703 q 459 703 537 671 q 621 636 659 581 q 668 568 668 559 q 668 544 614 484 q 563 428 545 416 q 535 410 525 410 q 517 410 480 433 q 443 456 399 456 q 352 456 320 422 q 287 388 287 341 q 287 293 322 257 q 356 221 403 221 q 435 221 460 233 q 459 245 452 302 q 447 344 447 370 q 447 375 449 380 q 452 383 459 383 q 463 383 486 380 q 520 376 582 376 q 604 376 646 378 q 689 380 711 380 q 725 380 725 368 q 725 342 720 289 q 716 236 716 210 q 716 179 721 117 q 727 55 727 27 z"},"q":{"x_min":0,"x_max":623,"ha":623,"o":"m 604 474 q 604 470 601 462 q 580 399 580 182 l 580 83 q 580 47 582 -14 q 585 -79 585 -110 q 585 -129 564 -131 q 540 -133 468 -133 q 450 -133 413 -135 q 377 -138 359 -138 q 348 -138 348 -121 q 348 -98 350 -52 q 351 -6 351 17 q 351 23 346 23 q 349 23 306 6 q 263 -11 234 -11 q 138 -11 78 63 q 21 133 21 232 q 21 347 73 414 q 130 488 241 488 q 306 488 334 465 q 342 458 345 458 q 348 458 348 462 q 348 468 344 479 q 341 491 341 497 q 341 505 353 505 q 490 505 594 484 q 604 482 604 474 z m 344 246 q 344 293 300 293 q 258 293 258 246 q 258 200 307 200 q 344 200 344 246 z"},"d":{"x_min":0,"x_max":624,"ha":624,"o":"m 597 693 q 597 694 592 576 q 584 383 584 304 q 584 69 591 21 q 592 14 592 11 q 592 1 584 -1 q 587 0 471 0 q 456 0 425 -2 q 394 -3 378 -3 q 370 -3 368 10 q 367 24 363 24 q 367 24 320 6 q 273 -12 243 -12 q 135 -12 75 58 q 18 125 18 234 q 18 346 73 412 q 132 482 241 482 q 280 482 341 450 q 346 450 346 464 l 346 576 q 346 592 343 623 q 340 654 340 669 q 340 685 349 685 q 379 685 467 692 q 482 693 528 701 q 567 708 586 708 q 597 708 597 693 z m 346 238 q 346 257 333 271 q 319 284 300 284 q 280 284 267 271 q 254 258 254 238 q 254 218 267 205 q 280 192 300 192 q 320 192 333 205 q 346 218 346 238 z"},"1":{"x_min":0,"x_max":384,"ha":384,"o":"m 338 586 q 338 583 337 573 q 330 525 330 326 l 330 30 q 330 11 320 4 q 313 0 294 0 q 280 0 251 0 q 223 1 209 1 q 192 1 157 0 q 123 -2 106 -2 q 85 -2 85 19 q 85 47 88 104 q 92 160 92 188 l 92 333 q 92 351 54 355 q 17 359 17 385 l 17 517 q 17 532 30 537 q 115 568 154 612 q 165 625 172 625 q 174 625 179 623 q 229 614 330 595 q 338 593 338 586 z"},"5":{"x_min":0,"x_max":533,"ha":533,"o":"m 512 211 q 512 83 422 30 q 352 -12 214 -12 q 100 -12 30 -1 q 16 1 16 8 q 16 24 20 55 q 24 87 24 103 l 24 185 q 24 201 32 201 q 32 201 79 184 q 126 167 151 167 q 230 167 230 208 q 230 251 145 251 q 128 251 95 246 q 62 240 46 240 q 26 240 26 259 q 26 281 28 326 q 31 371 31 393 q 31 421 32 478 q 34 535 34 563 q 34 570 32 584 q 31 599 31 605 q 31 613 40 613 q 41 613 46 612 q 95 605 177 605 q 285 605 416 637 q 420 638 423 638 q 430 638 430 625 q 430 610 427 581 q 423 551 423 536 q 423 457 429 440 q 430 437 430 436 q 430 430 412 430 q 394 430 358 433 q 322 436 304 436 q 215 436 215 422 l 215 412 q 214 400 227 400 q 238 400 259 403 q 281 406 292 406 q 381 406 444 354 q 512 299 512 211 z"}}}
